<svg width="18" height="18" viewBox="0 0 18 18" fill="none" xmlns="http://www.w3.org/2000/svg">
<path fill-rule="evenodd" clip-rule="evenodd" d="M17.5951 16.4159L14.0259 12.8475C15.0903 11.5198 15.6692 9.86835 15.6667 8.16669C15.6667 4.02669 12.3067 0.666687 8.16675 0.666687C4.02675 0.666687 0.666748 4.02669 0.666748 8.16669C0.666748 12.3067 4.02675 15.6667 8.16675 15.6667C9.86842 15.6691 11.5199 15.0902 12.8476 14.0259L16.4159 17.595L17.5951 16.4159ZM14.0001 8.16669C14.0025 9.68371 13.4118 11.1416 12.3542 12.2292L12.2292 12.3542C11.1417 13.4118 9.68377 14.0024 8.16675 14C4.94342 14 2.33341 11.3892 2.33341 8.16669C2.33341 4.94335 4.94342 2.33335 8.16675 2.33335C11.3892 2.33335 14.0001 4.94335 14.0001 8.16669Z" fill="#00689D"/>
</svg>
