<svg width="18" height="16" viewBox="0 0 18 16" fill="none" xmlns="http://www.w3.org/2000/svg">
<path fill-rule="evenodd" clip-rule="evenodd" d="M17.3332 5.5C17.3332 2.58333 15.2815 0.5 12.7498 0.5C11.1998 0.5 9.83317 1.33333 8.99984 2.16667C8.1665 1.33333 6.79984 0.5 5.24984 0.5C2.74984 0.5 0.666504 2.58333 0.666504 5.5C0.666504 11.0007 6.22414 14.2784 8.60479 15.6825C8.74873 15.7674 8.88106 15.8454 8.99984 15.9167C9.11862 15.8454 9.25094 15.7674 9.39488 15.6825C11.7755 14.2784 17.3332 11.0007 17.3332 5.5ZM11.7948 12.0858C11.1748 12.5792 10.5123 13.04 9.77817 13.5033C9.529 13.66 9.28234 13.8108 8.99984 13.9792C8.71734 13.8108 8.47067 13.66 8.2215 13.5025C7.48734 13.04 6.82484 12.5792 6.204 12.0858C3.7215 10.1108 2.33317 7.95333 2.33317 5.5C2.33317 3.54667 3.63317 2.16667 5.24984 2.16667C6.1465 2.16667 7.1165 2.64167 7.8215 3.345L8.99984 4.52333L10.1782 3.345C10.8832 2.64167 11.8532 2.16667 12.7498 2.16667C14.3857 2.16667 15.6665 3.53333 15.6665 5.5C15.6665 7.9525 14.279 10.1108 11.7948 12.0858Z" fill="#4E5D6B"/>
</svg>
